<mxfile host="65bd71144e">
    <diagram id="bxJqmcAA1n49yRWCh9Xo" name="Page-1">
        <mxGraphModel dx="1388" dy="746" grid="0" gridSize="10" guides="1" tooltips="1" connect="1" arrows="1" fold="1" page="1" pageScale="1" pageWidth="1169" pageHeight="827" background="#ffffff" math="0" shadow="0">
            <root>
                <mxCell id="0"/>
                <mxCell id="1" parent="0"/>
                <mxCell id="16" value="" style="rounded=1;whiteSpace=wrap;html=1;fillColor=none;strokeColor=#000099;strokeWidth=3;fontColor=#000000;fontSize=15;fontFamily=Helvetica;" parent="1" vertex="1">
                    <mxGeometry x="185" y="68" width="846" height="614" as="geometry"/>
                </mxCell>
                <mxCell id="20" value="" style="rounded=1;whiteSpace=wrap;html=1;strokeColor=#000000;strokeWidth=2;fillColor=#E6A8B2;dashed=1;fontColor=#000000;fontSize=15;fontFamily=Helvetica;" parent="1" vertex="1">
                    <mxGeometry x="874" y="481" width="139" height="59" as="geometry"/>
                </mxCell>
                <mxCell id="19" value="" style="rounded=1;whiteSpace=wrap;html=1;strokeColor=#000000;strokeWidth=2;fillColor=#93DE8E;dashed=1;fontColor=#000000;fontSize=15;fontFamily=Helvetica;" parent="1" vertex="1">
                    <mxGeometry x="880" y="394" width="132" height="54" as="geometry"/>
                </mxCell>
                <mxCell id="18" value="" style="rounded=1;whiteSpace=wrap;html=1;strokeColor=#000000;strokeWidth=2;fillColor=#BDF2FF;dashed=1;fontColor=#000000;fontSize=15;fontFamily=Helvetica;" parent="1" vertex="1">
                    <mxGeometry x="204" y="98" width="659" height="567" as="geometry"/>
                </mxCell>
                <mxCell id="29" value="" style="rounded=1;whiteSpace=wrap;html=1;strokeColor=#000000;strokeWidth=2;fillColor=none;dashed=1;fontColor=#000000;fontSize=15;fontFamily=Helvetica;" parent="1" vertex="1">
                    <mxGeometry x="222" y="210" width="365" height="233" as="geometry"/>
                </mxCell>
                <mxCell id="30" value="" style="rounded=1;whiteSpace=wrap;html=1;strokeColor=#000000;strokeWidth=2;fillColor=none;dashed=1;fontColor=#000000;fontSize=15;fontFamily=Helvetica;" parent="1" vertex="1">
                    <mxGeometry x="242" y="260" width="328" height="165" as="geometry"/>
                </mxCell>
                <mxCell id="37" value="" style="rounded=1;whiteSpace=wrap;html=1;strokeColor=#000000;strokeWidth=2;fillColor=none;dashed=1;fontColor=#000000;fontSize=15;fontFamily=Helvetica;" parent="1" vertex="1">
                    <mxGeometry x="260" y="303" width="292" height="109" as="geometry"/>
                </mxCell>
                <mxCell id="17" value="" style="sketch=0;aspect=fixed;html=1;points=[];align=center;image;fontSize=15;image=img/lib/mscae/Kubernetes.svg;strokeColor=#000000;strokeWidth=3;fillColor=none;fontColor=#000000;fontFamily=Helvetica;" parent="1" vertex="1">
                    <mxGeometry x="816" y="43" width="50" height="48" as="geometry"/>
                </mxCell>
                <mxCell id="21" value="" style="sketch=0;html=1;dashed=0;whitespace=wrap;fillColor=#2875E2;strokeColor=#ffffff;points=[[0.005,0.63,0],[0.1,0.2,0],[0.9,0.2,0],[0.5,0,0],[0.995,0.63,0],[0.72,0.99,0],[0.5,1,0],[0.28,0.99,0]];verticalLabelPosition=bottom;align=center;verticalAlign=top;shape=mxgraph.kubernetes.icon;prIcon=ns;strokeWidth=2;fontColor=#000000;fontSize=15;fontFamily=Helvetica;" parent="1" vertex="1">
                    <mxGeometry x="266" y="80" width="50" height="48" as="geometry"/>
                </mxCell>
                <mxCell id="22" value="" style="sketch=0;html=1;dashed=0;whitespace=wrap;fillColor=#2875E2;strokeColor=#ffffff;points=[[0.005,0.63,0],[0.1,0.2,0],[0.9,0.2,0],[0.5,0,0],[0.995,0.63,0],[0.72,0.99,0],[0.5,1,0],[0.28,0.99,0]];verticalLabelPosition=bottom;align=center;verticalAlign=top;shape=mxgraph.kubernetes.icon;prIcon=ns;strokeWidth=2;fontColor=#000000;fontSize=15;fontFamily=Helvetica;" parent="1" vertex="1">
                    <mxGeometry x="880" y="366" width="50" height="48" as="geometry"/>
                </mxCell>
                <mxCell id="23" value="" style="sketch=0;html=1;dashed=0;whitespace=wrap;fillColor=#2875E2;strokeColor=#ffffff;points=[[0.005,0.63,0],[0.1,0.2,0],[0.9,0.2,0],[0.5,0,0],[0.995,0.63,0],[0.72,0.99,0],[0.5,1,0],[0.28,0.99,0]];verticalLabelPosition=bottom;align=center;verticalAlign=top;shape=mxgraph.kubernetes.icon;prIcon=ns;strokeWidth=2;fontColor=#000000;fontSize=15;fontFamily=Helvetica;" parent="1" vertex="1">
                    <mxGeometry x="880" y="451" width="50" height="48" as="geometry"/>
                </mxCell>
                <mxCell id="46" style="edgeStyle=none;html=1;fontSize=15;fontColor=#000000;strokeColor=#000000;strokeWidth=3;endArrow=classic;endFill=0;startArrow=none;startFill=0;entryX=0.5;entryY=0;entryDx=0;entryDy=0;entryPerimeter=0;fontFamily=Helvetica;exitX=0.005;exitY=0.63;exitDx=0;exitDy=0;exitPerimeter=0;" parent="1" source="24" target="26" edge="1">
                    <mxGeometry relative="1" as="geometry">
                        <mxPoint x="545" y="354" as="targetPoint"/>
                        <Array as="points">
                            <mxPoint x="301" y="158"/>
                        </Array>
                        <mxPoint x="563.9999999999998" y="158" as="sourcePoint"/>
                    </mxGeometry>
                </mxCell>
                <mxCell id="59" style="edgeStyle=none;html=1;entryX=0.5;entryY=0;entryDx=0;entryDy=0;entryPerimeter=0;strokeColor=#000000;strokeWidth=3;fontSize=15;fontColor=#000000;startArrow=classic;startFill=0;endArrow=none;endFill=0;fontFamily=Helvetica;exitX=0.9;exitY=0.2;exitDx=0;exitDy=0;exitPerimeter=0;" parent="1" source="24" target="55" edge="1">
                    <mxGeometry relative="1" as="geometry">
                        <Array as="points">
                            <mxPoint x="789" y="137"/>
                        </Array>
                        <mxPoint x="774" y="182" as="sourcePoint"/>
                        <mxPoint x="780" y="278" as="targetPoint"/>
                    </mxGeometry>
                </mxCell>
                <mxCell id="122" style="edgeStyle=none;html=1;exitX=0.5;exitY=1;exitDx=0;exitDy=0;exitPerimeter=0;strokeColor=#000000;strokeWidth=3;" edge="1" parent="1" source="24" target="113">
                    <mxGeometry relative="1" as="geometry"/>
                </mxCell>
                <mxCell id="24" value="" style="sketch=0;html=1;dashed=0;whitespace=wrap;fillColor=#2875E2;strokeColor=#ffffff;points=[[0.005,0.63,0],[0.1,0.2,0],[0.9,0.2,0],[0.5,0,0],[0.995,0.63,0],[0.72,0.99,0],[0.5,1,0],[0.28,0.99,0]];verticalLabelPosition=bottom;align=center;verticalAlign=top;shape=mxgraph.kubernetes.icon;prIcon=ing;strokeWidth=2;fontColor=#000000;fontSize=15;fontFamily=Helvetica;" parent="1" vertex="1">
                    <mxGeometry x="630" y="128" width="50" height="48" as="geometry"/>
                </mxCell>
                <mxCell id="26" value="" style="sketch=0;html=1;dashed=0;whitespace=wrap;fillColor=#2875E2;strokeColor=#ffffff;points=[[0.005,0.63,0],[0.1,0.2,0],[0.9,0.2,0],[0.5,0,0],[0.995,0.63,0],[0.72,0.99,0],[0.5,1,0],[0.28,0.99,0]];verticalLabelPosition=bottom;align=center;verticalAlign=top;shape=mxgraph.kubernetes.icon;prIcon=svc;strokeWidth=2;fontColor=#000000;fontSize=15;fontFamily=Helvetica;" parent="1" vertex="1">
                    <mxGeometry x="276" y="188" width="50" height="48" as="geometry"/>
                </mxCell>
                <mxCell id="25" value="" style="sketch=0;html=1;dashed=0;whitespace=wrap;fillColor=#2875E2;strokeColor=#ffffff;points=[[0.005,0.63,0],[0.1,0.2,0],[0.9,0.2,0],[0.5,0,0],[0.995,0.63,0],[0.72,0.99,0],[0.5,1,0],[0.28,0.99,0]];verticalLabelPosition=bottom;align=center;verticalAlign=top;shape=mxgraph.kubernetes.icon;prIcon=hpa;strokeWidth=2;fontColor=#000000;fontSize=15;fontFamily=Helvetica;" parent="1" vertex="1">
                    <mxGeometry x="326" y="234" width="50" height="48" as="geometry"/>
                </mxCell>
                <mxCell id="62" style="edgeStyle=none;html=1;entryX=0.005;entryY=0.63;entryDx=0;entryDy=0;entryPerimeter=0;strokeColor=#000000;strokeWidth=3;fontSize=15;fontColor=#000000;startArrow=none;startFill=0;endArrow=classic;endFill=1;fontFamily=Helvetica;" parent="1" source="31" target="33" edge="1">
                    <mxGeometry relative="1" as="geometry">
                        <Array as="points">
                            <mxPoint x="383" y="376"/>
                        </Array>
                    </mxGeometry>
                </mxCell>
                <mxCell id="31" value="" style="sketch=0;html=1;dashed=0;whitespace=wrap;fillColor=#2875E2;strokeColor=#ffffff;points=[[0.005,0.63,0],[0.1,0.2,0],[0.9,0.2,0],[0.5,0,0],[0.995,0.63,0],[0.72,0.99,0],[0.5,1,0],[0.28,0.99,0]];verticalLabelPosition=bottom;align=center;verticalAlign=top;shape=mxgraph.kubernetes.icon;prIcon=cm;strokeWidth=2;fontColor=#000000;fontSize=15;fontFamily=Helvetica;" parent="1" vertex="1">
                    <mxGeometry x="357.75" y="471" width="50" height="48" as="geometry"/>
                </mxCell>
                <mxCell id="61" style="edgeStyle=none;html=1;entryX=0.5;entryY=1;entryDx=0;entryDy=0;entryPerimeter=0;strokeColor=#000000;strokeWidth=3;fontSize=15;fontColor=#000000;startArrow=none;startFill=0;endArrow=classic;endFill=1;fontFamily=Helvetica;" parent="1" source="32" target="55" edge="1">
                    <mxGeometry relative="1" as="geometry"/>
                </mxCell>
                <mxCell id="68" style="edgeStyle=none;html=1;strokeColor=#000000;strokeWidth=3;fontSize=15;fontColor=#000000;startArrow=none;startFill=0;endArrow=classic;endFill=1;fontFamily=Helvetica;" parent="1" source="32" target="64" edge="1">
                    <mxGeometry relative="1" as="geometry"/>
                </mxCell>
                <mxCell id="32" value="" style="sketch=0;html=1;dashed=0;whitespace=wrap;fillColor=#2875E2;strokeColor=#ffffff;points=[[0.005,0.63,0],[0.1,0.2,0],[0.9,0.2,0],[0.5,0,0],[0.995,0.63,0],[0.72,0.99,0],[0.5,1,0],[0.28,0.99,0]];verticalLabelPosition=bottom;align=center;verticalAlign=top;shape=mxgraph.kubernetes.icon;prIcon=crd;strokeWidth=2;fontColor=#000000;fontSize=15;fontFamily=Helvetica;" parent="1" vertex="1">
                    <mxGeometry x="764" y="229.5" width="50" height="48" as="geometry"/>
                </mxCell>
                <mxCell id="71" style="edgeStyle=none;html=1;exitX=0.995;exitY=0.63;exitDx=0;exitDy=0;exitPerimeter=0;entryX=0.5;entryY=0;entryDx=0;entryDy=0;entryPerimeter=0;strokeColor=#000000;strokeWidth=3;fontSize=15;fontColor=#000000;startArrow=none;startFill=0;endArrow=classic;endFill=1;fontFamily=Helvetica;" parent="1" edge="1" target="70">
                    <mxGeometry relative="1" as="geometry">
                        <Array as="points">
                            <mxPoint x="504" y="376"/>
                            <mxPoint x="532" y="376"/>
                        </Array>
                        <mxPoint x="463.7500000000002" y="376.24" as="sourcePoint"/>
                        <mxPoint x="667" y="721.9999999999998" as="targetPoint"/>
                    </mxGeometry>
                </mxCell>
                <mxCell id="33" value="" style="sketch=0;html=1;dashed=0;whitespace=wrap;fillColor=#2875E2;strokeColor=#ffffff;points=[[0.005,0.63,0],[0.1,0.2,0],[0.9,0.2,0],[0.5,0,0],[0.995,0.63,0],[0.72,0.99,0],[0.5,1,0],[0.28,0.99,0]];verticalLabelPosition=bottom;align=center;verticalAlign=top;shape=mxgraph.kubernetes.icon;prIcon=pod;strokeWidth=2;fontColor=#000000;fontSize=15;fontFamily=Helvetica;" parent="1" vertex="1">
                    <mxGeometry x="426" y="346" width="50" height="48" as="geometry"/>
                </mxCell>
                <mxCell id="63" style="edgeStyle=none;html=1;exitX=0.5;exitY=0;exitDx=0;exitDy=0;exitPerimeter=0;entryX=0.5;entryY=1;entryDx=0;entryDy=0;entryPerimeter=0;strokeColor=#000000;strokeWidth=3;fontSize=15;fontColor=#000000;startArrow=none;startFill=0;endArrow=classic;endFill=1;fontFamily=Helvetica;" parent="1" source="125" target="33" edge="1">
                    <mxGeometry relative="1" as="geometry">
                        <Array as="points">
                            <mxPoint x="451" y="495"/>
                        </Array>
                        <mxPoint x="480.25" y="494.24" as="sourcePoint"/>
                    </mxGeometry>
                </mxCell>
                <mxCell id="67" style="edgeStyle=none;html=1;strokeColor=#000000;strokeWidth=3;fontSize=15;fontColor=#000000;startArrow=none;startFill=0;endArrow=classic;endFill=1;exitX=0.5;exitY=1;exitDx=0;exitDy=0;exitPerimeter=0;fontFamily=Helvetica;" parent="1" source="36" target="66" edge="1">
                    <mxGeometry relative="1" as="geometry">
                        <Array as="points"/>
                    </mxGeometry>
                </mxCell>
                <mxCell id="36" value="" style="sketch=0;html=1;dashed=0;whitespace=wrap;fillColor=#2875E2;strokeColor=#ffffff;points=[[0.005,0.63,0],[0.1,0.2,0],[0.9,0.2,0],[0.5,0,0],[0.995,0.63,0],[0.72,0.99,0],[0.5,1,0],[0.28,0.99,0]];verticalLabelPosition=bottom;align=center;verticalAlign=top;shape=mxgraph.kubernetes.icon;prIcon=job;strokeWidth=2;fontColor=#000000;fontSize=15;fontFamily=Helvetica;" parent="1" vertex="1">
                    <mxGeometry x="386" y="561" width="50" height="48" as="geometry"/>
                </mxCell>
                <mxCell id="35" value="" style="sketch=0;html=1;dashed=0;whitespace=wrap;fillColor=#2875E2;strokeColor=#ffffff;points=[[0.005,0.63,0],[0.1,0.2,0],[0.9,0.2,0],[0.5,0,0],[0.995,0.63,0],[0.72,0.99,0],[0.5,1,0],[0.28,0.99,0]];verticalLabelPosition=bottom;align=center;verticalAlign=top;shape=mxgraph.kubernetes.icon;prIcon=rs;strokeWidth=2;fontColor=#000000;fontSize=15;fontFamily=Helvetica;" parent="1" vertex="1">
                    <mxGeometry x="258" y="277.5" width="50" height="48" as="geometry"/>
                </mxCell>
                <mxCell id="39" value="&lt;font style=&quot;font-size: 15px;&quot;&gt;&lt;b style=&quot;font-size: 15px;&quot;&gt;DigitalOcean &lt;br&gt;Kebernetes Cluster&lt;/b&gt;&lt;/font&gt;" style="text;html=1;align=left;verticalAlign=middle;resizable=0;points=[];autosize=1;strokeColor=none;fillColor=none;fontColor=#000000;fontSize=15;fontFamily=Helvetica;" parent="1" vertex="1">
                    <mxGeometry x="866" y="79" width="156" height="48" as="geometry"/>
                </mxCell>
                <mxCell id="40" value="&lt;font style=&quot;font-size: 15px;&quot;&gt;&lt;b style=&quot;font-size: 15px;&quot;&gt;Namespace: django-app&lt;/b&gt;&lt;/font&gt;" style="text;html=1;align=center;verticalAlign=middle;resizable=0;points=[];autosize=1;strokeColor=none;fillColor=none;fontColor=#000000;fontSize=15;fontFamily=Helvetica;" parent="1" vertex="1">
                    <mxGeometry x="318" y="94" width="191" height="30" as="geometry"/>
                </mxCell>
                <mxCell id="41" value="&lt;font style=&quot;font-size: 15px;&quot;&gt;&lt;b style=&quot;font-size: 15px;&quot;&gt;Ingress:&lt;br style=&quot;font-size: 15px;&quot;&gt;app-ingress&lt;/b&gt;&lt;/font&gt;" style="text;html=1;align=left;verticalAlign=middle;resizable=0;points=[];autosize=1;strokeColor=none;fillColor=none;fontColor=#000000;fontSize=15;fontFamily=Helvetica;" parent="1" vertex="1">
                    <mxGeometry x="658" y="172.23" width="103" height="48" as="geometry"/>
                </mxCell>
                <mxCell id="42" value="&lt;b style=&quot;font-size: 15px;&quot;&gt;Service:&amp;nbsp; public-app:8080&lt;/b&gt;" style="text;html=1;align=center;verticalAlign=middle;resizable=0;points=[];autosize=1;strokeColor=none;fillColor=none;fontColor=#000000;fontSize=15;fontFamily=Helvetica;" parent="1" vertex="1">
                    <mxGeometry x="359" y="182" width="199" height="30" as="geometry"/>
                </mxCell>
                <mxCell id="43" value="&lt;font style=&quot;font-size: 15px;&quot;&gt;&lt;b style=&quot;font-size: 15px;&quot;&gt;Deployment: sample-app&lt;/b&gt;&lt;/font&gt;" style="text;html=1;align=center;verticalAlign=middle;resizable=0;points=[];autosize=1;strokeColor=none;fillColor=none;fontColor=#000000;fontSize=15;fontFamily=Helvetica;" parent="1" vertex="1">
                    <mxGeometry x="303.5" y="297" width="196" height="30" as="geometry"/>
                </mxCell>
                <mxCell id="44" value="&lt;font style=&quot;font-size: 15px;&quot;&gt;&lt;b style=&quot;font-size: 15px;&quot;&gt;HPA: &lt;/b&gt;&lt;span style=&quot;font-size: 15px;&quot;&gt;&lt;b style=&quot;font-size: 15px;&quot;&gt;sample-app-scale&lt;/b&gt;&lt;/span&gt;&lt;br style=&quot;font-size: 15px;&quot;&gt;&lt;/font&gt;" style="text;html=1;align=center;verticalAlign=middle;resizable=0;points=[];autosize=1;strokeColor=none;fillColor=none;fontColor=#000000;fontSize=15;fontFamily=Helvetica;" parent="1" vertex="1">
                    <mxGeometry x="370" y="255.77" width="184" height="30" as="geometry"/>
                </mxCell>
                <mxCell id="48" value="&lt;span style=&quot;font-size: 15px;&quot;&gt;&lt;b style=&quot;font-size: 15px;&quot;&gt;Pod: sample-app&lt;/b&gt;&lt;/span&gt;" style="text;html=1;align=left;verticalAlign=middle;resizable=0;points=[];autosize=1;strokeColor=none;fillColor=none;fontColor=#000000;fontSize=15;fontFamily=Helvetica;" parent="1" vertex="1">
                    <mxGeometry x="313" y="331" width="139" height="30" as="geometry"/>
                </mxCell>
                <mxCell id="49" value="&lt;div style=&quot;text-align: left; font-size: 15px;&quot;&gt;&lt;b style=&quot;background-color: initial; font-size: 15px;&quot;&gt;Endpoints:&amp;nbsp;&lt;/b&gt;&lt;b style=&quot;background-color: initial;&quot;&gt;public-app:8000&lt;/b&gt;&lt;/div&gt;" style="text;html=1;align=center;verticalAlign=middle;resizable=0;points=[];autosize=1;strokeColor=none;fillColor=none;fontColor=#000000;fontSize=15;fontFamily=Helvetica;" parent="1" vertex="1">
                    <mxGeometry x="362.5" y="204" width="215" height="30" as="geometry"/>
                </mxCell>
                <mxCell id="85" style="edgeStyle=none;html=1;entryX=0.5;entryY=1;entryDx=0;entryDy=0;entryPerimeter=0;strokeColor=#000000;strokeWidth=3;fontSize=15;fontColor=#000000;startArrow=none;startFill=0;endArrow=classic;endFill=1;fontFamily=Helvetica;" parent="1" source="51" target="78" edge="1">
                    <mxGeometry relative="1" as="geometry">
                        <Array as="points">
                            <mxPoint x="139" y="586"/>
                        </Array>
                    </mxGeometry>
                </mxCell>
                <mxCell id="50" value="&lt;div style=&quot;text-align: left; font-size: 15px;&quot;&gt;&lt;b style=&quot;font-size: 15px; background-color: initial;&quot;&gt;Job:&lt;/b&gt;&lt;/div&gt;&lt;span style=&quot;font-size: 15px;&quot;&gt;&lt;b style=&quot;font-size: 15px;&quot;&gt;dyn-dns-update&lt;/b&gt;&lt;/span&gt;" style="text;html=1;align=center;verticalAlign=middle;resizable=0;points=[];autosize=1;strokeColor=none;fillColor=none;fontColor=#000000;fontSize=15;fontFamily=Helvetica;" parent="1" vertex="1">
                    <mxGeometry x="404.5" y="606" width="131" height="48" as="geometry"/>
                </mxCell>
                <mxCell id="51" value="" style="sketch=0;html=1;dashed=0;whitespace=wrap;fillColor=#2875E2;strokeColor=#ffffff;points=[[0.005,0.63,0],[0.1,0.2,0],[0.9,0.2,0],[0.5,0,0],[0.995,0.63,0],[0.72,0.99,0],[0.5,1,0],[0.28,0.99,0]];verticalLabelPosition=bottom;align=center;verticalAlign=top;shape=mxgraph.kubernetes.icon;prIcon=job;strokeWidth=2;fontColor=#000000;fontSize=15;fontFamily=Helvetica;" parent="1" vertex="1">
                    <mxGeometry x="261" y="562" width="50" height="48" as="geometry"/>
                </mxCell>
                <mxCell id="52" value="&lt;div style=&quot;text-align: left; font-size: 15px;&quot;&gt;&lt;b style=&quot;font-size: 15px; background-color: initial;&quot;&gt;Job:&lt;/b&gt;&lt;/div&gt;&lt;span style=&quot;font-size: 15px;&quot;&gt;&lt;b style=&quot;font-size: 15px;&quot;&gt;dyn-dns-check&lt;/b&gt;&lt;/span&gt;" style="text;html=1;align=center;verticalAlign=middle;resizable=0;points=[];autosize=1;strokeColor=none;fillColor=none;fontColor=#000000;fontSize=15;fontFamily=Helvetica;" parent="1" vertex="1">
                    <mxGeometry x="221" y="592" width="124" height="48" as="geometry"/>
                </mxCell>
                <mxCell id="53" value="&lt;span style=&quot;font-size: 15px;&quot;&gt;&lt;b style=&quot;font-size: 15px;&quot;&gt;CM:&lt;br style=&quot;font-size: 15px;&quot;&gt;&lt;div style=&quot;font-size: 15px;&quot;&gt;&lt;b style=&quot;background-color: initial; font-size: 15px;&quot;&gt;django-app-conf&lt;/b&gt;&lt;/div&gt;&lt;/b&gt;&lt;/span&gt;" style="text;html=1;align=left;verticalAlign=middle;resizable=0;points=[];autosize=1;strokeColor=none;fillColor=none;fontColor=#000000;fontSize=15;fontFamily=Helvetica;" parent="1" vertex="1">
                    <mxGeometry x="237" y="456" width="135" height="48" as="geometry"/>
                </mxCell>
                <mxCell id="55" value="" style="sketch=0;html=1;dashed=0;whitespace=wrap;fillColor=#2875E2;strokeColor=#ffffff;points=[[0.005,0.63,0],[0.1,0.2,0],[0.9,0.2,0],[0.5,0,0],[0.995,0.63,0],[0.72,0.99,0],[0.5,1,0],[0.28,0.99,0]];verticalLabelPosition=bottom;align=center;verticalAlign=top;shape=mxgraph.kubernetes.icon;prIcon=secret;strokeWidth=2;fontColor=#000000;fontSize=15;fontFamily=Helvetica;" parent="1" vertex="1">
                    <mxGeometry x="764" y="156" width="50" height="48" as="geometry"/>
                </mxCell>
                <mxCell id="56" value="&lt;span style=&quot;font-size: 15px;&quot;&gt;&lt;b style=&quot;font-size: 15px;&quot;&gt;Secret:&lt;br style=&quot;font-size: 15px;&quot;&gt;letsencrypt-prod-cert&lt;br style=&quot;font-size: 15px;&quot;&gt;&lt;/b&gt;&lt;/span&gt;" style="text;html=1;align=left;verticalAlign=middle;resizable=0;points=[];autosize=1;strokeColor=none;fillColor=none;fontColor=#000000;fontSize=15;fontFamily=Helvetica;" parent="1" vertex="1">
                    <mxGeometry x="812" y="150" width="169" height="48" as="geometry"/>
                </mxCell>
                <mxCell id="60" value="&lt;div style=&quot;text-align: left; font-size: 15px;&quot;&gt;&lt;span style=&quot;font-size: 15px;&quot;&gt;&lt;b style=&quot;font-size: 15px;&quot;&gt;CRD Issuer:&lt;/b&gt;&lt;/span&gt;&lt;/div&gt;&lt;div style=&quot;text-align: left; font-size: 15px;&quot;&gt;&lt;span style=&quot;font-size: 15px;&quot;&gt;&lt;b style=&quot;font-size: 15px;&quot;&gt;letsencrypt-prod&lt;/b&gt;&lt;/span&gt;&lt;/div&gt;" style="text;html=1;align=center;verticalAlign=middle;resizable=0;points=[];autosize=1;strokeColor=none;fillColor=none;fontColor=#000000;fontSize=15;fontFamily=Helvetica;" parent="1" vertex="1">
                    <mxGeometry x="669.5" y="252" width="136" height="48" as="geometry"/>
                </mxCell>
                <mxCell id="64" value="" style="sketch=0;outlineConnect=0;fontColor=#000000;gradientColor=none;fillColor=#BF0816;strokeColor=none;dashed=0;verticalLabelPosition=bottom;verticalAlign=top;align=center;html=1;fontSize=15;fontStyle=0;aspect=fixed;pointerEvents=1;shape=mxgraph.aws4.certificate_manager_2;fontFamily=Helvetica;" parent="1" vertex="1">
                    <mxGeometry x="1063" y="220.23000000000002" width="71" height="65.54" as="geometry"/>
                </mxCell>
                <mxCell id="66" value="" style="aspect=fixed;html=1;points=[];align=center;image;fontSize=15;image=img/lib/azure2/networking/DNS_Zones.svg;fontColor=#000000;fillColor=#66FFFF;fontFamily=Helvetica;" parent="1" vertex="1">
                    <mxGeometry x="379" y="703" width="64" height="64" as="geometry"/>
                </mxCell>
                <mxCell id="70" value="" style="strokeWidth=2;html=1;shape=mxgraph.flowchart.database;whiteSpace=wrap;fontSize=15;fontColor=#000000;fillColor=#66FFFF;strokeColor=#0000CC;fontFamily=Helvetica;" parent="1" vertex="1">
                    <mxGeometry x="505" y="710" width="60" height="60" as="geometry"/>
                </mxCell>
                <mxCell id="72" value="&lt;div style=&quot;text-align: left; font-size: 15px;&quot;&gt;&lt;span style=&quot;font-size: 15px;&quot;&gt;&lt;b style=&quot;font-size: 15px;&quot;&gt;Lets&lt;/b&gt;&lt;/span&gt;&lt;b style=&quot;background-color: initial;&quot;&gt;Encrypt&lt;/b&gt;&lt;/div&gt;&lt;div style=&quot;text-align: left; font-size: 15px;&quot;&gt;&lt;b style=&quot;background-color: initial;&quot;&gt;&amp;nbsp;CA&lt;/b&gt;&lt;/div&gt;" style="text;html=1;align=center;verticalAlign=middle;resizable=0;points=[];autosize=1;strokeColor=none;fillColor=none;fontColor=#000000;fontSize=15;fontFamily=Helvetica;" parent="1" vertex="1">
                    <mxGeometry x="1040" y="175.99999999999994" width="105" height="48" as="geometry"/>
                </mxCell>
                <mxCell id="73" value="&lt;div style=&quot;text-align: left; font-size: 15px;&quot;&gt;&lt;span style=&quot;font-size: 15px;&quot;&gt;&lt;b style=&quot;font-size: 15px;&quot;&gt;Namecheap&amp;nbsp;&lt;/b&gt;&lt;/span&gt;&lt;/div&gt;&lt;div style=&quot;text-align: left; font-size: 15px;&quot;&gt;&lt;span style=&quot;font-size: 15px;&quot;&gt;&lt;b style=&quot;font-size: 15px;&quot;&gt;Dynamic DNS&lt;/b&gt;&lt;/span&gt;&lt;/div&gt;&lt;div style=&quot;text-align: left; font-size: 15px;&quot;&gt;&lt;span style=&quot;font-size: 15px;&quot;&gt;&lt;b style=&quot;font-size: 15px;&quot;&gt;API&lt;/b&gt;&lt;/span&gt;&lt;/div&gt;" style="text;html=1;align=center;verticalAlign=middle;resizable=0;points=[];autosize=1;strokeColor=none;fillColor=none;fontColor=#000000;fontSize=15;fontFamily=Helvetica;" parent="1" vertex="1">
                    <mxGeometry x="365" y="761" width="116" height="66" as="geometry"/>
                </mxCell>
                <mxCell id="74" value="&lt;div style=&quot;text-align: left; font-size: 15px;&quot;&gt;&lt;span style=&quot;font-size: 15px;&quot;&gt;&lt;b style=&quot;font-size: 15px;&quot;&gt;DigitalOcean&lt;/b&gt;&lt;/span&gt;&lt;/div&gt;&lt;div style=&quot;text-align: left; font-size: 15px;&quot;&gt;&lt;span style=&quot;font-size: 15px;&quot;&gt;&lt;b style=&quot;font-size: 15px;&quot;&gt;Managed&amp;nbsp;&lt;/b&gt;&lt;/span&gt;&lt;b style=&quot;background-color: initial;&quot;&gt;PostreSQL&lt;/b&gt;&lt;/div&gt;" style="text;html=1;align=center;verticalAlign=middle;resizable=0;points=[];autosize=1;strokeColor=none;fillColor=none;fontColor=#000000;fontSize=15;fontFamily=Helvetica;" parent="1" vertex="1">
                    <mxGeometry x="484" y="767" width="165" height="48" as="geometry"/>
                </mxCell>
                <mxCell id="80" style="edgeStyle=none;html=1;exitX=0.5;exitY=0;exitDx=0;exitDy=0;exitPerimeter=0;entryX=0.5;entryY=0;entryDx=0;entryDy=0;entryPerimeter=0;strokeColor=#000000;strokeWidth=3;fontSize=15;fontColor=#000000;startArrow=none;startFill=0;endArrow=classic;endFill=1;fontFamily=Helvetica;" parent="1" target="24" edge="1">
                    <mxGeometry relative="1" as="geometry">
                        <Array as="points">
                            <mxPoint x="141" y="38"/>
                            <mxPoint x="655" y="38"/>
                        </Array>
                        <mxPoint x="140.5" y="338" as="sourcePoint"/>
                    </mxGeometry>
                </mxCell>
                <mxCell id="78" value="" style="fillColor=#28A8E0;verticalLabelPosition=bottom;sketch=0;html=1;strokeColor=#ffffff;verticalAlign=top;align=center;points=[[0.145,0.145,0],[0.5,0,0],[0.855,0.145,0],[1,0.5,0],[0.855,0.855,0],[0.5,1,0],[0.145,0.855,0],[0,0.5,0]];pointerEvents=1;shape=mxgraph.cisco_safe.compositeIcon;bgIcon=ellipse;resIcon=mxgraph.cisco_safe.capability.load_balancer;labelBackgroundColor=#FFFFFF;fontSize=15;fontColor=#000000;fontFamily=Helvetica;" parent="1" vertex="1">
                    <mxGeometry x="107" y="338" width="63" height="63" as="geometry"/>
                </mxCell>
                <mxCell id="87" style="edgeStyle=none;html=1;entryX=0;entryY=0.5;entryDx=0;entryDy=0;entryPerimeter=0;strokeColor=#000000;strokeWidth=3;fontSize=15;fontColor=#000000;startArrow=none;startFill=0;endArrow=classic;endFill=1;fontFamily=Helvetica;" parent="1" source="86" target="78" edge="1">
                    <mxGeometry relative="1" as="geometry">
                        <Array as="points">
                            <mxPoint x="66" y="370"/>
                        </Array>
                    </mxGeometry>
                </mxCell>
                <mxCell id="86" value="" style="aspect=fixed;perimeter=ellipsePerimeter;html=1;align=center;shadow=0;dashed=0;spacingTop=3;image;image=img/lib/active_directory/laptop_client.svg;labelBackgroundColor=#FFFFFF;strokeColor=#0000CC;fontSize=15;fontColor=#000000;fillColor=#66FFFF;fontFamily=Helvetica;" parent="1" vertex="1">
                    <mxGeometry x="46" y="496" width="45" height="50" as="geometry"/>
                </mxCell>
                <mxCell id="88" value="&lt;font style=&quot;font-size: 15px;&quot;&gt;&lt;b style=&quot;font-size: 15px;&quot;&gt;Namespace: &lt;br&gt;&lt;div style=&quot;&quot;&gt;&lt;b style=&quot;background-color: initial;&quot;&gt;cert-masnager&lt;/b&gt;&lt;/div&gt;&lt;/b&gt;&lt;/font&gt;" style="text;html=1;align=left;verticalAlign=middle;resizable=0;points=[];autosize=1;strokeColor=none;fillColor=none;fontColor=#000000;fontSize=15;fontFamily=Helvetica;" parent="1" vertex="1">
                    <mxGeometry x="891" y="406" width="121" height="48" as="geometry"/>
                </mxCell>
                <mxCell id="89" value="&lt;font style=&quot;font-size: 15px;&quot;&gt;&lt;b style=&quot;font-size: 15px;&quot;&gt;Namespace: &lt;br&gt;ingress-nginx&lt;/b&gt;&lt;/font&gt;" style="text;html=1;align=left;verticalAlign=middle;resizable=0;points=[];autosize=1;strokeColor=none;fillColor=none;fontColor=#000000;fontSize=15;fontFamily=Helvetica;" parent="1" vertex="1">
                    <mxGeometry x="886" y="494" width="116" height="48" as="geometry"/>
                </mxCell>
                <mxCell id="90" value="&lt;font style=&quot;font-size: 15px;&quot;&gt;&lt;b style=&quot;font-size: 15px;&quot;&gt;Digital Ocean&lt;br style=&quot;font-size: 15px;&quot;&gt;Load Balancer&amp;nbsp;&lt;br style=&quot;font-size: 15px;&quot;&gt;External IP&lt;br style=&quot;font-size: 15px;&quot;&gt;&lt;/b&gt;&lt;/font&gt;" style="text;html=1;align=center;verticalAlign=middle;resizable=0;points=[];autosize=1;strokeColor=none;fillColor=none;fontColor=#000000;fontSize=15;fontFamily=Helvetica;" parent="1" vertex="1">
                    <mxGeometry x="12" y="288" width="126" height="66" as="geometry"/>
                </mxCell>
                <mxCell id="92" value="&lt;span style=&quot;font-size: 15px;&quot;&gt;&lt;b style=&quot;font-size: 15px;&quot;&gt;week7.fedunets.uk -&amp;gt;&amp;nbsp;&lt;/b&gt;&lt;/span&gt;&lt;b style=&quot;font-size: 15px;&quot;&gt;&amp;nbsp; public-app:8080&lt;/b&gt;" style="text;html=1;align=center;verticalAlign=middle;resizable=0;points=[];autosize=1;strokeColor=none;fillColor=none;fontColor=#000000;fontSize=15;fontFamily=Helvetica;" parent="1" vertex="1">
                    <mxGeometry x="316" y="130" width="296" height="30" as="geometry"/>
                </mxCell>
                <mxCell id="93" value="&lt;div style=&quot;text-align: left; font-size: 15px;&quot;&gt;&lt;b&gt;Helm pre-install hooks&lt;/b&gt;&lt;/div&gt;" style="text;html=1;align=center;verticalAlign=middle;resizable=0;points=[];autosize=1;strokeColor=none;fillColor=none;fontColor=#000000;fontSize=15;fontFamily=Helvetica;" parent="1" vertex="1">
                    <mxGeometry x="243" y="538" width="179" height="30" as="geometry"/>
                </mxCell>
                <mxCell id="95" style="edgeStyle=none;html=1;entryX=0.005;entryY=0.63;entryDx=0;entryDy=0;entryPerimeter=0;strokeColor=#000000;strokeWidth=3;exitX=0.5;exitY=0;exitDx=0;exitDy=0;exitPerimeter=0;" parent="1" source="94" target="36" edge="1">
                    <mxGeometry relative="1" as="geometry">
                        <mxPoint x="387" y="735" as="sourcePoint"/>
                        <Array as="points">
                            <mxPoint x="340" y="591"/>
                        </Array>
                    </mxGeometry>
                </mxCell>
                <mxCell id="94" value="" style="verticalLabelPosition=bottom;html=1;verticalAlign=top;align=center;strokeColor=none;fillColor=#00BEF2;shape=mxgraph.azure.script_file;pointerEvents=1;" parent="1" vertex="1">
                    <mxGeometry x="318.25" y="710" width="47.5" height="50" as="geometry"/>
                </mxCell>
                <mxCell id="96" value="&lt;div style=&quot;font-size: 14px;&quot;&gt;&lt;b style=&quot;background-color: initial; font-size: 14px;&quot;&gt;Helmfile&amp;nbsp;&lt;/b&gt;&lt;/div&gt;&lt;b style=&quot;font-size: 14px;&quot;&gt;ingress-nginx&lt;/b&gt;&lt;div style=&quot;font-size: 14px;&quot;&gt;&lt;b style=&quot;background-color: initial; font-size: 14px;&quot;&gt;postinstal hook&lt;/b&gt;&lt;/div&gt;&lt;font style=&quot;font-size: 14px;&quot;&gt;&lt;div style=&quot;font-size: 14px;&quot;&gt;&lt;b style=&quot;background-color: initial; font-size: 14px;&quot;&gt;bash script updating&amp;nbsp;&lt;/b&gt;&lt;/div&gt;&lt;b style=&quot;font-size: 14px;&quot;&gt;&lt;div style=&quot;font-size: 14px;&quot;&gt;&lt;b style=&quot;background-color: initial; font-size: 14px;&quot;&gt;External IP&lt;/b&gt;&lt;/div&gt;&lt;/b&gt;&lt;/font&gt;" style="text;html=1;align=left;verticalAlign=middle;resizable=0;points=[];autosize=1;strokeColor=none;fillColor=none;fontColor=#000000;fontSize=14;fontFamily=Helvetica;" parent="1" vertex="1">
                    <mxGeometry x="178" y="682" width="160" height="96" as="geometry"/>
                </mxCell>
                <mxCell id="102" value="&lt;div style=&quot;&quot;&gt;&lt;b style=&quot;font-size: 14px; color: rgb(0, 0, 0); background-color: initial;&quot;&gt;Helmfile release:&lt;/b&gt;&lt;/div&gt;&lt;font style=&quot;font-size: 14px;&quot; color=&quot;#000000&quot;&gt;&lt;div style=&quot;&quot;&gt;&lt;b style=&quot;background-color: initial;&quot;&gt;cert-manager&lt;/b&gt;&lt;/div&gt;&lt;/font&gt;" style="shape=note2;boundedLbl=1;whiteSpace=wrap;html=1;size=17;verticalAlign=middle;align=left;fillColor=#FFFF66;strokeColor=#000000;" parent="1" vertex="1">
                    <mxGeometry x="1001.5" y="423" width="134.5" height="54" as="geometry"/>
                </mxCell>
                <mxCell id="103" value="&lt;div style=&quot;&quot;&gt;&lt;b style=&quot;font-size: 14px; color: rgb(0, 0, 0); background-color: initial;&quot;&gt;Helmfile release:&lt;/b&gt;&lt;/div&gt;&lt;font style=&quot;font-size: 14px;&quot; color=&quot;#000000&quot;&gt;&lt;div style=&quot;&quot;&gt;&lt;b&gt;ingress-nginx&lt;/b&gt;&lt;/div&gt;&lt;/font&gt;" style="shape=note2;boundedLbl=1;whiteSpace=wrap;html=1;size=17;verticalAlign=middle;align=left;fillColor=#FFFF66;strokeColor=#000000;" parent="1" vertex="1">
                    <mxGeometry x="991" y="508" width="137.5" height="48" as="geometry"/>
                </mxCell>
                <mxCell id="104" value="&lt;div style=&quot;&quot;&gt;&lt;b style=&quot;font-size: 14px; color: rgb(0, 0, 0); background-color: initial;&quot;&gt;Helmfile release:&lt;/b&gt;&lt;/div&gt;&lt;font style=&quot;font-size: 14px;&quot; color=&quot;#000000&quot;&gt;&lt;div style=&quot;&quot;&gt;&lt;b style=&quot;background-color: initial;&quot;&gt;django-app&lt;/b&gt;&lt;/div&gt;&lt;/font&gt;" style="shape=note2;boundedLbl=1;whiteSpace=wrap;html=1;size=17;verticalAlign=middle;align=left;fillColor=#FFFF66;strokeColor=#000000;" parent="1" vertex="1">
                    <mxGeometry x="151" y="139" width="125" height="59" as="geometry"/>
                </mxCell>
                <mxCell id="105" value="" style="rounded=1;whiteSpace=wrap;html=1;strokeColor=#000000;strokeWidth=2;fillColor=#CC99FF;dashed=1;fontColor=#000000;fontSize=15;fontFamily=Helvetica;" parent="1" vertex="1">
                    <mxGeometry x="882" y="295" width="139" height="59" as="geometry"/>
                </mxCell>
                <mxCell id="106" value="" style="sketch=0;html=1;dashed=0;whitespace=wrap;fillColor=#2875E2;strokeColor=#ffffff;points=[[0.005,0.63,0],[0.1,0.2,0],[0.9,0.2,0],[0.5,0,0],[0.995,0.63,0],[0.72,0.99,0],[0.5,1,0],[0.28,0.99,0]];verticalLabelPosition=bottom;align=center;verticalAlign=top;shape=mxgraph.kubernetes.icon;prIcon=ns;strokeWidth=2;fontColor=#000000;fontSize=15;fontFamily=Helvetica;" parent="1" vertex="1">
                    <mxGeometry x="885.5" y="264" width="50" height="48" as="geometry"/>
                </mxCell>
                <mxCell id="107" value="&lt;font style=&quot;font-size: 15px;&quot;&gt;&lt;b style=&quot;font-size: 15px;&quot;&gt;Namespace: &lt;br&gt;metrics-server&lt;/b&gt;&lt;/font&gt;" style="text;html=1;align=left;verticalAlign=middle;resizable=0;points=[];autosize=1;strokeColor=none;fillColor=none;fontColor=#000000;fontSize=15;fontFamily=Helvetica;" parent="1" vertex="1">
                    <mxGeometry x="895" y="308" width="121" height="48" as="geometry"/>
                </mxCell>
                <mxCell id="108" value="&lt;div style=&quot;&quot;&gt;&lt;b style=&quot;font-size: 14px; color: rgb(0, 0, 0); background-color: initial;&quot;&gt;Helmfile release:&lt;/b&gt;&lt;/div&gt;&lt;font style=&quot;font-size: 14px;&quot; color=&quot;#000000&quot;&gt;&lt;div style=&quot;&quot;&gt;&lt;b&gt;hpa-metrix&lt;/b&gt;&lt;/div&gt;&lt;/font&gt;" style="shape=note2;boundedLbl=1;whiteSpace=wrap;html=1;size=16;verticalAlign=middle;align=left;fillColor=#FFFF66;strokeColor=#000000;" parent="1" vertex="1">
                    <mxGeometry x="1004" y="336" width="139" height="53" as="geometry"/>
                </mxCell>
                <mxCell id="111" value="" style="rounded=1;whiteSpace=wrap;html=1;strokeColor=#000000;strokeWidth=2;fillColor=none;dashed=1;fontColor=#000000;fontSize=15;fontFamily=Helvetica;" vertex="1" parent="1">
                    <mxGeometry x="627" y="340" width="216" height="142" as="geometry"/>
                </mxCell>
                <mxCell id="112" value="" style="rounded=1;whiteSpace=wrap;html=1;strokeColor=#000000;strokeWidth=2;fillColor=none;dashed=1;fontColor=#000000;fontSize=15;fontFamily=Helvetica;" vertex="1" parent="1">
                    <mxGeometry x="655" y="383" width="165" height="88" as="geometry"/>
                </mxCell>
                <mxCell id="113" value="" style="sketch=0;html=1;dashed=0;whitespace=wrap;fillColor=#2875E2;strokeColor=#ffffff;points=[[0.005,0.63,0],[0.1,0.2,0],[0.9,0.2,0],[0.5,0,0],[0.995,0.63,0],[0.72,0.99,0],[0.5,1,0],[0.28,0.99,0]];verticalLabelPosition=bottom;align=center;verticalAlign=top;shape=mxgraph.kubernetes.icon;prIcon=svc;strokeWidth=2;fontColor=#000000;fontSize=15;fontFamily=Helvetica;" vertex="1" parent="1">
                    <mxGeometry x="632" y="308" width="50" height="48" as="geometry"/>
                </mxCell>
                <mxCell id="114" style="edgeStyle=none;html=1;entryX=0.5;entryY=1;entryDx=0;entryDy=0;entryPerimeter=0;strokeColor=#000000;strokeWidth=3;fontSize=15;fontColor=#000000;startArrow=none;startFill=0;endArrow=classic;endFill=1;fontFamily=Helvetica;exitX=0.995;exitY=0.63;exitDx=0;exitDy=0;exitPerimeter=0;" edge="1" parent="1" source="115" target="116">
                    <mxGeometry relative="1" as="geometry">
                        <Array as="points">
                            <mxPoint x="686" y="500"/>
                            <mxPoint x="741" y="500"/>
                        </Array>
                        <mxPoint x="742" y="443.0000000000001" as="targetPoint"/>
                    </mxGeometry>
                </mxCell>
                <mxCell id="115" value="" style="sketch=0;html=1;dashed=0;whitespace=wrap;fillColor=#2875E2;strokeColor=#ffffff;points=[[0.005,0.63,0],[0.1,0.2,0],[0.9,0.2,0],[0.5,0,0],[0.995,0.63,0],[0.72,0.99,0],[0.5,1,0],[0.28,0.99,0]];verticalLabelPosition=bottom;align=center;verticalAlign=top;shape=mxgraph.kubernetes.icon;prIcon=cm;strokeWidth=2;fontColor=#000000;fontSize=15;fontFamily=Helvetica;" vertex="1" parent="1">
                    <mxGeometry x="557" y="470" width="50" height="48" as="geometry"/>
                </mxCell>
                <mxCell id="116" value="" style="sketch=0;html=1;dashed=0;whitespace=wrap;fillColor=#2875E2;strokeColor=#ffffff;points=[[0.005,0.63,0],[0.1,0.2,0],[0.9,0.2,0],[0.5,0,0],[0.995,0.63,0],[0.72,0.99,0],[0.5,1,0],[0.28,0.99,0]];verticalLabelPosition=bottom;align=center;verticalAlign=top;shape=mxgraph.kubernetes.icon;prIcon=pod;strokeWidth=2;fontColor=#000000;fontSize=15;fontFamily=Helvetica;" vertex="1" parent="1">
                    <mxGeometry x="717" y="406" width="50" height="48" as="geometry"/>
                </mxCell>
                <mxCell id="117" value="" style="sketch=0;html=1;dashed=0;whitespace=wrap;fillColor=#2875E2;strokeColor=#ffffff;points=[[0.005,0.63,0],[0.1,0.2,0],[0.9,0.2,0],[0.5,0,0],[0.995,0.63,0],[0.72,0.99,0],[0.5,1,0],[0.28,0.99,0]];verticalLabelPosition=bottom;align=center;verticalAlign=top;shape=mxgraph.kubernetes.icon;prIcon=rs;strokeWidth=2;fontColor=#000000;fontSize=15;fontFamily=Helvetica;" vertex="1" parent="1">
                    <mxGeometry x="638" y="394" width="50" height="48" as="geometry"/>
                </mxCell>
                <mxCell id="118" value="&lt;b style=&quot;font-size: 15px;&quot;&gt;Service: &lt;br&gt;static-web-server:8888&lt;/b&gt;" style="text;html=1;align=left;verticalAlign=middle;resizable=0;points=[];autosize=1;strokeColor=none;fillColor=none;fontColor=#000000;fontSize=15;fontFamily=Helvetica;" vertex="1" parent="1">
                    <mxGeometry x="678" y="297" width="180" height="48" as="geometry"/>
                </mxCell>
                <mxCell id="119" value="&lt;font style=&quot;font-size: 15px;&quot;&gt;&lt;b style=&quot;font-size: 15px;&quot;&gt;Deployment: static-web&lt;/b&gt;&lt;/font&gt;" style="text;html=1;align=center;verticalAlign=middle;resizable=0;points=[];autosize=1;strokeColor=none;fillColor=none;fontColor=#000000;fontSize=15;fontFamily=Helvetica;" vertex="1" parent="1">
                    <mxGeometry x="652" y="352" width="186" height="30" as="geometry"/>
                </mxCell>
                <mxCell id="120" value="&lt;span style=&quot;font-size: 15px;&quot;&gt;&lt;b style=&quot;font-size: 15px;&quot;&gt;Pod: static-web&lt;/b&gt;&lt;/span&gt;" style="text;html=1;align=left;verticalAlign=middle;resizable=0;points=[];autosize=1;strokeColor=none;fillColor=none;fontColor=#000000;fontSize=15;fontFamily=Helvetica;" vertex="1" parent="1">
                    <mxGeometry x="695" y="384" width="129" height="30" as="geometry"/>
                </mxCell>
                <mxCell id="54" value="&lt;span style=&quot;font-size: 15px;&quot;&gt;&lt;b style=&quot;font-size: 15px;&quot;&gt;Secret:&lt;br style=&quot;font-size: 15px;&quot;&gt;db_connect&lt;br style=&quot;font-size: 15px;&quot;&gt;&lt;/b&gt;&lt;/span&gt;" style="text;html=1;align=left;verticalAlign=middle;resizable=0;points=[];autosize=1;strokeColor=none;fillColor=none;fontColor=#000000;fontSize=15;fontFamily=Helvetica;" parent="1" vertex="1">
                    <mxGeometry x="426" y="511.5" width="102" height="48" as="geometry"/>
                </mxCell>
                <mxCell id="134" style="edgeStyle=none;html=1;exitX=0.5;exitY=1;exitDx=0;exitDy=0;exitPerimeter=0;entryX=0.005;entryY=0.63;entryDx=0;entryDy=0;entryPerimeter=0;strokeColor=#000000;strokeWidth=3;endArrow=none;endFill=0;startArrow=classic;startFill=1;dashed=1;dashPattern=1 1;" edge="1" parent="1" source="123" target="124">
                    <mxGeometry relative="1" as="geometry">
                        <Array as="points">
                            <mxPoint x="794" y="636"/>
                        </Array>
                    </mxGeometry>
                </mxCell>
                <mxCell id="135" style="edgeStyle=none;html=1;entryX=0.995;entryY=0.63;entryDx=0;entryDy=0;entryPerimeter=0;strokeColor=#000000;strokeWidth=3;" edge="1" parent="1" source="123" target="116">
                    <mxGeometry relative="1" as="geometry">
                        <Array as="points">
                            <mxPoint x="791" y="436"/>
                        </Array>
                    </mxGeometry>
                </mxCell>
                <mxCell id="123" value="" style="sketch=0;html=1;dashed=0;whitespace=wrap;fillColor=#2875E2;strokeColor=#ffffff;points=[[0.005,0.63,0],[0.1,0.2,0],[0.9,0.2,0],[0.5,0,0],[0.995,0.63,0],[0.72,0.99,0],[0.5,1,0],[0.28,0.99,0]];verticalLabelPosition=bottom;align=center;verticalAlign=top;shape=mxgraph.kubernetes.icon;prIcon=pvc" vertex="1" parent="1">
                    <mxGeometry x="767" y="532" width="50" height="48" as="geometry"/>
                </mxCell>
                <mxCell id="124" value="" style="sketch=0;html=1;dashed=0;whitespace=wrap;fillColor=#2875E2;strokeColor=#ffffff;points=[[0.005,0.63,0],[0.1,0.2,0],[0.9,0.2,0],[0.5,0,0],[0.995,0.63,0],[0.72,0.99,0],[0.5,1,0],[0.28,0.99,0]];verticalLabelPosition=bottom;align=center;verticalAlign=top;shape=mxgraph.kubernetes.icon;prIcon=pv" vertex="1" parent="1">
                    <mxGeometry x="914" y="606" width="50" height="48" as="geometry"/>
                </mxCell>
                <mxCell id="125" value="" style="sketch=0;html=1;dashed=0;whitespace=wrap;fillColor=#2875E2;strokeColor=#ffffff;points=[[0.005,0.63,0],[0.1,0.2,0],[0.9,0.2,0],[0.5,0,0],[0.995,0.63,0],[0.72,0.99,0],[0.5,1,0],[0.28,0.99,0]];verticalLabelPosition=bottom;align=center;verticalAlign=top;shape=mxgraph.kubernetes.icon;prIcon=secret;strokeWidth=2;fontColor=#000000;fontSize=15;fontFamily=Helvetica;" vertex="1" parent="1">
                    <mxGeometry x="426" y="474" width="50" height="48" as="geometry"/>
                </mxCell>
                <mxCell id="132" style="edgeStyle=none;html=1;strokeColor=#000000;strokeWidth=3;endArrow=none;endFill=0;startArrow=classic;startFill=1;entryX=0.5;entryY=0;entryDx=0;entryDy=0;entryPerimeter=0;" edge="1" parent="1" source="127" target="143">
                    <mxGeometry relative="1" as="geometry">
                        <mxPoint x="687.5" y="720" as="targetPoint"/>
                    </mxGeometry>
                </mxCell>
                <mxCell id="133" style="edgeStyle=none;html=1;entryX=0.005;entryY=0.63;entryDx=0;entryDy=0;entryPerimeter=0;strokeColor=#000000;strokeWidth=3;exitX=0.995;exitY=0.63;exitDx=0;exitDy=0;exitPerimeter=0;" edge="1" parent="1" source="127" target="123">
                    <mxGeometry relative="1" as="geometry">
                        <Array as="points">
                            <mxPoint x="724" y="608"/>
                            <mxPoint x="723" y="562"/>
                        </Array>
                    </mxGeometry>
                </mxCell>
                <mxCell id="127" value="" style="sketch=0;html=1;dashed=0;whitespace=wrap;fillColor=#2875E2;strokeColor=#ffffff;points=[[0.005,0.63,0],[0.1,0.2,0],[0.9,0.2,0],[0.5,0,0],[0.995,0.63,0],[0.72,0.99,0],[0.5,1,0],[0.28,0.99,0]];verticalLabelPosition=bottom;align=center;verticalAlign=top;shape=mxgraph.kubernetes.icon;prIcon=job;strokeWidth=2;fontColor=#000000;fontSize=15;fontFamily=Helvetica;" vertex="1" parent="1">
                    <mxGeometry x="642.5" y="577.5" width="50" height="48" as="geometry"/>
                </mxCell>
                <mxCell id="131" style="edgeStyle=none;html=1;strokeColor=#000000;strokeWidth=3;entryX=0.5;entryY=0;entryDx=0;entryDy=0;entryPerimeter=0;exitX=0.5;exitY=1;exitDx=0;exitDy=0;exitPerimeter=0;startArrow=classic;startFill=1;endArrow=none;endFill=0;" edge="1" parent="1" source="130" target="143">
                    <mxGeometry relative="1" as="geometry">
                        <mxPoint x="687.5" y="720" as="targetPoint"/>
                        <Array as="points">
                            <mxPoint x="583" y="652"/>
                            <mxPoint x="668" y="652"/>
                        </Array>
                    </mxGeometry>
                </mxCell>
                <mxCell id="136" style="edgeStyle=none;html=1;entryX=0.005;entryY=0.63;entryDx=0;entryDy=0;entryPerimeter=0;strokeColor=#000000;strokeWidth=3;exitX=0.995;exitY=0.63;exitDx=0;exitDy=0;exitPerimeter=0;" edge="1" parent="1" source="130" target="123">
                    <mxGeometry relative="1" as="geometry">
                        <Array as="points">
                            <mxPoint x="628" y="591"/>
                            <mxPoint x="627" y="562"/>
                        </Array>
                    </mxGeometry>
                </mxCell>
                <mxCell id="130" value="" style="sketch=0;html=1;dashed=0;whitespace=wrap;fillColor=#2875E2;strokeColor=#ffffff;points=[[0.005,0.63,0],[0.1,0.2,0],[0.9,0.2,0],[0.5,0,0],[0.995,0.63,0],[0.72,0.99,0],[0.5,1,0],[0.28,0.99,0]];verticalLabelPosition=bottom;align=center;verticalAlign=top;shape=mxgraph.kubernetes.icon;prIcon=cronjob" vertex="1" parent="1">
                    <mxGeometry x="557" y="561" width="50" height="48" as="geometry"/>
                </mxCell>
                <mxCell id="137" value="&lt;div style=&quot;text-align: left; font-size: 15px;&quot;&gt;&lt;b&gt;Static assets&lt;/b&gt;&lt;/div&gt;&lt;div style=&quot;text-align: left; font-size: 15px;&quot;&gt;&lt;b&gt;Git repo&lt;/b&gt;&lt;/div&gt;" style="text;html=1;align=center;verticalAlign=middle;resizable=0;points=[];autosize=1;strokeColor=none;fillColor=none;fontColor=#000000;fontSize=15;fontFamily=Helvetica;" vertex="1" parent="1">
                    <mxGeometry x="687" y="719" width="110" height="48" as="geometry"/>
                </mxCell>
                <mxCell id="138" value="&lt;div style=&quot;text-align: left; font-size: 15px;&quot;&gt;&lt;b style=&quot;font-size: 15px; background-color: initial;&quot;&gt;Job:&lt;/b&gt;&lt;/div&gt;&lt;div style=&quot;text-align: left; font-size: 15px;&quot;&gt;&lt;b style=&quot;font-size: 15px; background-color: initial;&quot;&gt;static-assets-init&lt;/b&gt;&lt;/div&gt;" style="text;html=1;align=center;verticalAlign=middle;resizable=0;points=[];autosize=1;strokeColor=none;fillColor=none;fontColor=#000000;fontSize=15;fontFamily=Helvetica;" vertex="1" parent="1">
                    <mxGeometry x="669.5" y="609" width="136" height="48" as="geometry"/>
                </mxCell>
                <mxCell id="139" value="&lt;div style=&quot;text-align: left; font-size: 15px;&quot;&gt;&lt;b style=&quot;font-size: 15px; background-color: initial;&quot;&gt;CronJob:&lt;/b&gt;&lt;/div&gt;&lt;div style=&quot;text-align: left; font-size: 15px;&quot;&gt;&lt;b style=&quot;font-size: 15px; background-color: initial;&quot;&gt;static-assets-update&lt;/b&gt;&lt;/div&gt;" style="text;html=1;align=center;verticalAlign=middle;resizable=0;points=[];autosize=1;strokeColor=none;fillColor=none;fontColor=#000000;fontSize=15;fontFamily=Helvetica;" vertex="1" parent="1">
                    <mxGeometry x="546" y="519" width="163" height="48" as="geometry"/>
                </mxCell>
                <mxCell id="140" value="&lt;div style=&quot;text-align: left; font-size: 15px;&quot;&gt;&lt;b style=&quot;font-size: 15px; background-color: initial;&quot;&gt;CM:&lt;/b&gt;&lt;/div&gt;&lt;div style=&quot;text-align: left; font-size: 15px;&quot;&gt;&lt;b style=&quot;font-size: 15px; background-color: initial;&quot;&gt;static-web-conf&lt;/b&gt;&lt;/div&gt;" style="text;html=1;align=center;verticalAlign=middle;resizable=0;points=[];autosize=1;strokeColor=none;fillColor=none;fontColor=#000000;fontSize=15;fontFamily=Helvetica;" vertex="1" parent="1">
                    <mxGeometry x="599" y="474" width="128" height="48" as="geometry"/>
                </mxCell>
                <mxCell id="141" value="&lt;div style=&quot;text-align: left; font-size: 15px;&quot;&gt;&lt;b style=&quot;font-size: 15px; background-color: initial;&quot;&gt;PVC:&lt;/b&gt;&lt;/div&gt;&lt;div style=&quot;text-align: left; font-size: 15px;&quot;&gt;&lt;b style=&quot;font-size: 15px; background-color: initial;&quot;&gt;static-assets&lt;/b&gt;&lt;/div&gt;" style="text;html=1;align=center;verticalAlign=middle;resizable=0;points=[];autosize=1;strokeColor=none;fillColor=none;fontColor=#000000;fontSize=15;fontFamily=Helvetica;" vertex="1" parent="1">
                    <mxGeometry x="798" y="562" width="109" height="48" as="geometry"/>
                </mxCell>
                <mxCell id="142" value="&lt;div style=&quot;text-align: left; font-size: 15px;&quot;&gt;&lt;b style=&quot;font-size: 15px; background-color: initial;&quot;&gt;PV: 1Gi&lt;/b&gt;&lt;/div&gt;&lt;div style=&quot;text-align: left; font-size: 15px;&quot;&gt;&lt;br&gt;&lt;/div&gt;" style="text;html=1;align=center;verticalAlign=middle;resizable=0;points=[];autosize=1;strokeColor=none;fillColor=none;fontColor=#000000;fontSize=15;fontFamily=Helvetica;" vertex="1" parent="1">
                    <mxGeometry x="942" y="592" width="71" height="48" as="geometry"/>
                </mxCell>
                <mxCell id="143" value="" style="verticalLabelPosition=bottom;html=1;verticalAlign=top;align=center;strokeColor=none;fillColor=#00BEF2;shape=mxgraph.azure.github_code;pointerEvents=1;" vertex="1" parent="1">
                    <mxGeometry x="644.5" y="720" width="50" height="50" as="geometry"/>
                </mxCell>
            </root>
        </mxGraphModel>
    </diagram>
</mxfile>